<svg xmlns="http://www.w3.org/2000/svg" width="80" height="50" viewBox="0 0 80 50"><title>Logo</title><path fill="#FFF" fill-rule="evenodd" d="M6.07 12.58V34h15.15v-3.96H10.78V12.58H6.07zm21.12 13.68c0 .62.06 1.225.18 1.815.12.59.325 1.12.615 1.59s.675.845 1.155 1.125 1.08.42 1.8.42 1.325-.14 1.815-.42c.49-.28.88-.655 1.17-1.125.29-.47.495-1 .615-1.59a9.308 9.308 0 0 0 0-3.645c-.12-.6-.325-1.13-.615-1.59-.29-.46-.68-.835-1.17-1.125-.49-.29-1.095-.435-1.815-.435s-1.32.145-1.8.435c-.48.29-.865.665-1.155 1.125-.29.46-.495.99-.615 1.59-.12.6-.18 1.21-.18 1.83zm-4.26 0c0-1.24.19-2.365.57-3.375.38-1.01.92-1.87 1.62-2.58a7.26 7.26 0 0 1 2.52-1.65c.98-.39 2.08-.585 3.3-.585 1.22 0 2.325.195 3.315.585.99.39 1.835.94 2.535 1.65.7.71 1.24 1.57 1.62 2.58.38 1.01.57 2.135.57 3.375 0 1.24-.19 2.36-.57 3.36-.38 1-.92 1.855-1.62 2.565a7.06 7.06 0 0 1-2.535 1.635c-.99.38-2.095.57-3.315.57-1.22 0-2.32-.19-3.3-.57a7.087 7.087 0 0 1-2.52-1.635c-.7-.71-1.24-1.565-1.62-2.565-.38-1-.57-2.12-.57-3.36zm26.04 4.08c.6 0 1.13-.12 1.59-.36.46-.24.84-.56 1.14-.96.3-.4.525-.855.675-1.365a5.66 5.66 0 0 0 .225-1.605c0-.64-.06-1.245-.18-1.815a4.535 4.535 0 0 0-.6-1.515c-.28-.44-.65-.79-1.11-1.05-.46-.26-1.04-.39-1.74-.39-.6 0-1.115.12-1.545.36-.43.24-.79.565-1.08.975-.29.41-.5.88-.63 1.41a6.966 6.966 0 0 0-.195 1.665c0 .56.055 1.115.165 1.665.11.55.3 1.045.57 1.485.27.44.625.8 1.065 1.08.44.28.99.42 1.65.42zm7.68 2.67c0 .62-.085 1.33-.255 2.13-.17.8-.535 1.545-1.095 2.235-.56.69-1.37 1.275-2.43 1.755s-2.48.72-4.26.72c-.76 0-1.535-.095-2.325-.285a7.386 7.386 0 0 1-2.16-.885c-.65-.4-1.19-.915-1.62-1.545-.43-.63-.675-1.385-.735-2.265H46c.2.8.59 1.355 1.17 1.665.58.31 1.25.465 2.01.465 1.2 0 2.075-.36 2.625-1.08.55-.72.815-1.63.795-2.73v-2.04h-.06a4.218 4.218 0 0 1-1.965 1.815c-.85.39-1.745.585-2.685.585-1.16 0-2.16-.205-3-.615-.84-.41-1.53-.97-2.07-1.68-.54-.71-.935-1.54-1.185-2.49-.25-.95-.375-1.955-.375-3.015 0-1 .145-1.965.435-2.895.29-.93.715-1.75 1.275-2.46a6.162 6.162 0 0 1 2.085-1.695c.83-.42 1.785-.63 2.865-.63 1.02 0 1.915.19 2.685.57.77.38 1.415 1.02 1.935 1.92h.06v-2.07h4.05v14.52zm7.2-6.75c0 .62.06 1.225.18 1.815.12.59.325 1.12.615 1.59s.675.845 1.155 1.125 1.08.42 1.8.42 1.325-.14 1.815-.42c.49-.28.88-.655 1.17-1.125.29-.47.495-1 .615-1.59a9.308 9.308 0 0 0 0-3.645c-.12-.6-.325-1.13-.615-1.59-.29-.46-.68-.835-1.17-1.125-.49-.29-1.095-.435-1.815-.435s-1.32.145-1.8.435c-.48.29-.865.665-1.155 1.125-.29.46-.495.99-.615 1.59-.12.6-.18 1.21-.18 1.83zm-4.26 0c0-1.24.19-2.365.57-3.375.38-1.01.92-1.87 1.62-2.58a7.26 7.26 0 0 1 2.52-1.65c.98-.39 2.08-.585 3.3-.585 1.22 0 2.325.195 3.315.585.99.39 1.835.94 2.535 1.65.7.71 1.24 1.57 1.62 2.58.38 1.01.57 2.135.57 3.375 0 1.24-.19 2.36-.57 3.36-.38 1-.92 1.855-1.62 2.565a7.06 7.06 0 0 1-2.535 1.635c-.99.38-2.095.57-3.315.57-1.22 0-2.32-.19-3.3-.57a7.087 7.087 0 0 1-2.52-1.635c-.7-.71-1.24-1.565-1.62-2.565-.38-1-.57-2.12-.57-3.36z"/></svg>